<svg width="100" height="100" viewBox="0 0 600 600" xmlns="http://www.w3.org/2000/svg" xmlns:xlink="http://www.w3.org/1999/xlink" >
    <!-- wing-shadow -->
    <filter id="wing-shadow" x="-50%" y="-50%" width="200%" height="200%">
        <feOffset result="offOut" in="SourceGraphic" dx="0" dy="0"/>
        <feColorMatrix result="matrixOut" in="offOut" type="matrix"
values="0.5 0 0 0 0 0 0.5 0 0 0 0 0 0.5 0 0 0 0 0 1 0" />
        <feGaussianBlur result="blurOut" in="matrixOut" stdDeviation="10" />
        <feBlend in="SourceGraphic" in2="blurOut" mode="normal" />
    </filter>


    <!--<rect x="0" y="0" width="300" height="300" fill="red" />-->
    <!-- duck-head -->
    <circle cx="248" cy="167" r="140" fill="rgb(255,204,0)" />

    <!-- duck-body -->
    <polygon points=
        "168,259 168,281 153,302 134,321 120,340 108,360 101,383 94,407 91,432 91,458 96,484 105,508 119,528 136,547 155,558 179,569 206,577 230,583 263,586 294,587 324,588 357,587 387,585 412,581 438,573 464,565 486,554 509,541 530,524 549,499 560,472 569,433 574,405 573,373 572,342 568,311 561,283 548,273 531,275 519,288 509,302 491,310 476,311 458,313 437,314 416,314 394,314 377,314 358,312 340,306 327,292 325,274 325,263" 
    fill="rgb(255,204,0)"
    />

    <!-- duck-wing -->
    <polygon points=
        "225,443 232,467 245,482 263,494 286,502 313,505 339,502 366,496 388,486 408,476 424,466 441,450 455,433 466,415 475,393 477,374 479,359 470,359 455,369 437,375 414,381 398,384 377,384 357,378 337,366 322,361 306,356 289,358 268,361 255,368 241,379 230,399 223,415 222,430" 
        fill="rgb(255,204,0)"
        filter="url(#wing-shadow)"
    />

    <!-- right-eye -->
    <ellipse cx="210" cy="146" rx="17" ry="19" fill="black" />
    <circle cx="216" cy="137" r="4" fill="white" />
    <!-- left-eye center:121,115 right:129,125 top:130,103 -->
    <ellipse cx="122" cy="118" rx="11" ry="15" fill="black" 
    transform="rotate(20 122 118)" />
    <circle cx="126" cy="110" r="2" fill="white" />

    <!-- duck-beak-1 -->                                                <!--|-->
    <polygon points=
        "62,210 72,218 86,228 99,234 117,239 133,240 149,240 166,238 164,220 160,206 153,193 144,182 135,174 126,167 119,164 108,167 94,168 81,167 67,164 56,158 47,152 39,147 32,148 30,157 35,172 44,187 52,199" 
        fill="rgb(255,102,0)"
    />

    <!-- duck-beak-2 -->                                                <!--|-->
    <polygon points=
        "166,238 149,240 133,240 117,239 99,234 86,228 72,218 62,210 53,212 48,219 52,227 62,235 74,243 86,247 102,250 118,250 132,248 148,244" 
        fill="rgb(248,56,9)"
    />
</svg>